<?xml version="1.0" encoding="UTF-8"?>
<svg width="92.332" height="64.838" version="1.1" viewBox="0 0 92.332 64.838" xmlns="http://www.w3.org/2000/svg" xmlns:cc="http://creativecommons.org/ns#" xmlns:dc="http://purl.org/dc/elements/1.1/" xmlns:rdf="http://www.w3.org/1999/02/22-rdf-syntax-ns#">
 <metadata>
  <rdf:RDF>
   <cc:Work rdf:about="">
    <dc:format>image/svg+xml</dc:format>
    <dc:type rdf:resource="http://purl.org/dc/dcmitype/StillImage"/>
    <dc:title/>
   </cc:Work>
  </rdf:RDF>
 </metadata>
 <g transform="translate(-12.16 -27.614)">
  <g transform="translate(-52.15 10.193)">
   <path d="m91.323 78.767c-4.813-2.4364 5.7395-0.22394 7.4145-1.0004 0.41195-0.19236 1.2279-0.43737 1.5641-1.0964 0.73548-1.4417 1.5051-2.5702 4.1455-4.4235 3.2855-2.306 5.0954-4.0082 6.4223-3.5291 0.62491 0.22567 1.318 0.92573 1.951 1.3442 3.4829 1.7496 6.6872 3.2173 10.426 2.9064 3.4527-0.25644 4.6996-0.6988 5.7368-1.1968 0.75718-0.36354 1.682-0.03536 1.7828 0.06545-1.4706 12.139-31.799 11.735-39.443 6.93z" fill="#d6d6dd"/>
   <path d="m131.41 49.717c-13.025-6.3772-13.645-7.3536-19.004-7.1002-2.83 0.13383-4.4648-0.39601-6.8703 0.67394-3.6811 1.6373-2.5385 2.4815-3.6315 4.418-0.5208 0.92279-2.559 0.36239-2.8068 0.75795-0.93072 1.4858-1.4797 2.1354-2.1193 3.0318-0.47184 0.66118-1.0549 0.17755-1.4066-0.29119-2.1503-2.0425-4.4416-1.2406-6.7556-1.9894-4.088-0.8921-5.4807-1.9932-10.54-2.9295-2.4278-0.19995-7.7522-0.88918-8.0229-0.89881 0.89154-5.3269 11.187-9.1167 14.7-9.7037 11.763-1.6446 21.714 1.1127 32.361 2.6135 11.758 2.4467 16.308-9.5404 19.28-15.373 2.1369-4.213 4.8819-6.1634 7.4716-5.3087 1.5968 0.52701 4.1869 3.3696 5.7117 6.2687 1.803 4.0305 5.515 7.1615 6.6752 11.285 0.51424 1.9097 7e-3 3.5075-1.6604 5.2349-2.1495 2.2262-8.1368 7.4259-9.2327 8.0181-1.4565 1.0765-2.5595 2.2987-3.9804 3.3825-7.0674 1.2287-7.4789-0.85362-10.169-2.0908z" fill="#71442a"/>
   <path d="m91.323 78.767c-11.796-7.308-22.068-14.76-21.735-31.479 0.15658-0.59878-0.65746-0.93397 0.22867-0.76773 0.97012 0.182 0.67508 0.91286 0.80928-0.0015 0.07915-0.5393 0.40399-0.82507 0.24724-0.98182-0.49065-0.49065 0.86928-0.77376 3.8564-0.27374l2.9005 0.48551c10.522 2.0035 14.703 1.7777 18.99 6.2931 0.1938 0.31031 1.5592 0.88107 1.7688 2.2735 0.42115 2.7983-0.321 6.67 0.55518 7.632 0.31074 0.34119 1.765 0.0077 1.765 0.15647 0 0.59079 2.3247 1.9653 3.4581 2.2717 1.8299 0.49468 8.0527 2.5232 6.4056 3.8329-1.9434 1.6248-4.0001 3.0981-6.0457 4.5889-2.3003 1.6764-3.4763 2.7652-3.9133 3.6231-2.06 3.23-6.7226 3.2853-9.2911 2.3466z" fill="#a90d07"/>
   <path d="m111.88 71.604c-1.1996-0.63641-2.5189-1.1571-2.9317-1.1571-0.90818 0-1.5711-0.62252-2.4063-2.2596-0.64215-1.2587-2.5319-2.5952-4.2236-2.987-3.0066-1.768-5.5433-5.7-5.6865-9.3151 0-0.60999-0.17069-1.7473-0.37932-2.5273-0.34672-1.2963-0.31626-1.5103 0.35443-2.4891 8.8184-14.8 21.307-9.9732 34.905-3.2247 10.225 5.0054 15.083 5.8297 23.92 4.0586 0.75935-0.15219 1.0499-0.09069 1.0768 0.22788 0.0843 0.99768-0.12646 1.7531-0.65729 2.3563-11.029 15.202-30.899 22.466-43.972 17.317z" fill="#562713"/>
   <path d="m78.214 47.84c-0.4316-0.4657-0.78472-0.95792-0.78472-1.0938 0-1.3331 2.0159-2.0096 3.3614-1.1279 1.4469 0.94807 0.75621 3.0685-0.99955 3.0685-0.44587 0-1.1356-0.3703-1.5771-0.84673zm-7.6647-0.26436c-0.176-0.05531-1.4715-0.35712-2.8788-0.67069-2.2303-0.49692-3.3612-1.008-3.3612-1.519 0-0.27022 6.2999-1.3877 6.5256-1.1576 0.25521 0.26023 0.50766 3.4984 0.27076 3.4731-0.13001-0.01389-0.38038-0.07052-0.55638-0.12582z" fill="#220702"/>
  </g>
 </g>
</svg>
